<svg id="flat" height="512" viewBox="0 0 512 512" width="512" xmlns="http://www.w3.org/2000/svg"><path d="m448 230.01v225.99a32.00409 32.00409 0 0 1 -32 32h-224a32.00409 32.00409 0 0 1 -32-32v-336h171.49a31.9757 31.9757 0 0 1 20.51 7.43994c.40991.34009.8.68994 1.18994 1.05l84.51006 78.01006a32.06007 32.06007 0 0 1 10.3 23.51z" fill="#548aff"/><g fill="#ffff"><path  d="m250 232h140v16h-140z"/><path d="m250 328h140v16h-140z"/><path  d="m250 424h140v16h-140z"/></g><circle cx="160" cy="120" fill="#f6bb00" r="96"/><path d="m200 112h-32v-32h-16v32h-32v16h32v32h16v-32h32z" fill="#de9400"/><path d="m444.76 216h-60.76a32.00409 32.00409 0 0 1 -32-32v-56.56006c.40991.34009.8.68994 1.18994 1.05l84.51006 78.01006a31.6119 31.6119 0 0 1 7.06 9.5z" fill="#7dafff" stroke="#fff" stroke-width="10"/></svg>